ffmpeg version N-102852-g758e2da289 Copyright (c) 2000-2021 the FFmpeg developers
  built with gcc 7 (Ubuntu 7.5.0-3ubuntu1~18.04)
  configuration: --prefix=/home/aleksandr/ffmpeg_debug_build --pkg-config-flags=--static --extra-cflags=-I/home/aleksandr/ffmpeg_debug_build/include --extra-ldflags=-L/home/aleksandr/ffmpeg_debug_build/lib --extra-libs='-lpthread -lm' --bindir=/home/aleksandr/bin_debug --enable-gpl --enable-libass --enable-libfdk-aac --enable-libfreetype --enable-libmp3lame --enable-libopus --enable-libtheora --enable-libvorbis --enable-libvpx --enable-libx264 --enable-libx265 --enable-nonfree
  libavutil      57.  0.100 / 57.  0.100
  libavcodec     59.  3.101 / 59.  3.101
  libavformat    59.  4.100 / 59.  4.100
  libavdevice    59.  0.100 / 59.  0.100
  libavfilter     8.  0.103 /  8.  0.103
  libswscale      6.  0.100 /  6.  0.100
  libswresample   4.  0.100 /  4.  0.100
  libpostproc    56.  0.100 / 56.  0.100
Guessed Channel Layout for Input Stream #0.0 : stereo
Input #0, asf, from '../.././Samples/129_VC-1_8bits_1280x720_29_970fps.wmv':
  Metadata:
    SfOriginalFPS   : 299700
    WMFSDKVersion   : 11.0.6001.7000
    WMFSDKNeeded    : 0.0.0.0000
    comment         : Footage: Small World Productions, Inc; Tourism New Zealand | Producer: Gary F. Spradling | Music: Steve Ball
    title           : Wildlife in HD
    copyright       : © 2008 Microsoft Corporation
    IsVBR           : 0
    DeviceConformanceTemplate: AP@L3
  Duration: 00:00:15.15, start: 0.000000, bitrate: 7216 kb/s
  Stream #0:0(eng): Audio: wmav2 (a[1][0][0] / 0x0161), 44100 Hz, stereo, fltp, 192 kb/s
  Stream #0:1(eng): Video: vc1 (Advanced) (WVC1 / 0x31435657), yuv420p, 1280x720, 5942 kb/s, 29.97 fps, 29.97 tbr, 1k tbn
File '/home/aleksandr/Debug-release_tests/Debug/Samples/129_VC-1_8bits_1280x720_29_970fps.wmv_tc/output_std5.mov' already exists. Overwrite? [y/N] Command terminated by signal 2
	Command being timed: "/home/aleksandr/bin_debug/ffmpeg -i ../.././Samples/129_VC-1_8bits_1280x720_29_970fps.wmv -c:v libx264 -f mov /home/aleksandr/Debug-release_tests/Debug/Samples/129_VC-1_8bits_1280x720_29_970fps.wmv_tc/output_std5.mov"
	User time (seconds): 0.01
	System time (seconds): 0.00
	Percent of CPU this job got: 0%
	Elapsed (wall clock) time (h:mm:ss or m:ss): 0:06.06
	Average shared text size (kbytes): 0
	Average unshared data size (kbytes): 0
	Average stack size (kbytes): 0
	Average total size (kbytes): 0
	Maximum resident set size (kbytes): 22628
	Average resident set size (kbytes): 0
	Major (requiring I/O) page faults: 0
	Minor (reclaiming a frame) page faults: 2383
	Voluntary context switches: 3
	Involuntary context switches: 0
	Swaps: 0
	File system inputs: 0
	File system outputs: 8
	Socket messages sent: 0
	Socket messages received: 0
	Signals delivered: 0
	Page size (bytes): 4096
	Exit status: 0
